<svg width="130" height="130" viewBox="0 0 130 130" fill="none" xmlns="http://www.w3.org/2000/svg">
<rect width="8.96552" height="8.96552" fill="#D9DBE9"/>
<rect x="13.4473" width="8.96552" height="8.96552" fill="#D9DBE9"/>
<rect x="26.8965" width="8.96552" height="8.96552" fill="#D9DBE9"/>
<rect x="40.3438" width="8.96552" height="8.96552" fill="#D9DBE9"/>
<rect x="53.7939" width="8.96552" height="8.96552" fill="#D9DBE9"/>
<rect x="67.2412" width="8.96552" height="8.96552" fill="#D9DBE9"/>
<rect x="80.6904" width="8.96552" height="8.96552" fill="#D9DBE9"/>
<rect x="94.1377" width="8.96552" height="8.96552" fill="#D9DBE9"/>
<rect x="107.587" width="8.96552" height="8.96552" fill="#D9DBE9"/>
<rect x="121.034" width="8.96552" height="8.96552" fill="#D9DBE9"/>
<rect y="13.4485" width="8.96552" height="8.96552" fill="#D9DBE9"/>
<rect x="13.4473" y="13.4485" width="8.96552" height="8.96552" fill="#D9DBE9"/>
<rect x="26.8965" y="13.4485" width="8.96552" height="8.96552" fill="#D9DBE9"/>
<rect x="40.3438" y="13.4485" width="8.96552" height="8.96552" fill="#D9DBE9"/>
<rect x="53.7939" y="13.4485" width="8.96552" height="8.96552" fill="#D9DBE9"/>
<rect x="67.2412" y="13.4485" width="8.96552" height="8.96552" fill="#D9DBE9"/>
<rect x="80.6904" y="13.4485" width="8.96552" height="8.96552" fill="#D9DBE9"/>
<rect x="94.1377" y="13.4485" width="8.96552" height="8.96552" fill="#D9DBE9"/>
<rect x="107.587" y="13.4485" width="8.96552" height="8.96552" fill="#D9DBE9"/>
<rect x="121.034" y="13.4485" width="8.96552" height="8.96552" fill="#D9DBE9"/>
<rect y="26.8965" width="8.96552" height="8.96552" fill="#D9DBE9"/>
<rect x="13.4473" y="26.8965" width="8.96552" height="8.96552" fill="#D9DBE9"/>
<rect x="26.8965" y="26.8965" width="8.96552" height="8.96552" fill="#D9DBE9"/>
<rect x="40.3438" y="26.8965" width="8.96552" height="8.96552" fill="#D9DBE9"/>
<rect x="53.7939" y="26.8965" width="8.96552" height="8.96552" fill="#D9DBE9"/>
<rect x="67.2412" y="26.8965" width="8.96552" height="8.96552" fill="#D9DBE9"/>
<rect x="80.6904" y="26.8965" width="8.96552" height="8.96552" fill="#D9DBE9"/>
<rect x="94.1377" y="26.8965" width="8.96552" height="8.96552" fill="#D9DBE9"/>
<rect x="107.587" y="26.8965" width="8.96552" height="8.96552" fill="#D9DBE9"/>
<rect x="121.034" y="26.8965" width="8.96552" height="8.96552" fill="#D9DBE9"/>
<rect y="40.345" width="8.96552" height="8.96552" fill="#D9DBE9"/>
<rect x="13.4473" y="40.345" width="8.96552" height="8.96552" fill="#D9DBE9"/>
<rect x="26.8965" y="40.345" width="8.96552" height="8.96552" fill="#D9DBE9"/>
<rect x="40.3438" y="40.345" width="8.96552" height="8.96552" fill="#D9DBE9"/>
<rect x="53.7939" y="40.345" width="8.96552" height="8.96552" fill="#D9DBE9"/>
<rect x="67.2412" y="40.345" width="8.96552" height="8.96552" fill="#D9DBE9"/>
<rect x="80.6904" y="40.345" width="8.96552" height="8.96552" fill="#D9DBE9"/>
<rect x="94.1377" y="40.345" width="8.96552" height="8.96552" fill="#D9DBE9"/>
<rect x="107.587" y="40.345" width="8.96552" height="8.96552" fill="#D9DBE9"/>
<rect x="121.034" y="40.345" width="8.96552" height="8.96552" fill="#D9DBE9"/>
<rect y="53.793" width="8.96552" height="8.96552" fill="#D9DBE9"/>
<rect x="13.4473" y="53.793" width="8.96552" height="8.96552" fill="#D9DBE9"/>
<rect x="26.8965" y="53.793" width="8.96552" height="8.96552" fill="#D9DBE9"/>
<rect x="40.3438" y="53.793" width="8.96552" height="8.96552" fill="#D9DBE9"/>
<rect x="53.7939" y="53.793" width="8.96552" height="8.96552" fill="#D9DBE9"/>
<rect x="67.2412" y="53.793" width="8.96552" height="8.96552" fill="#D9DBE9"/>
<rect x="80.6904" y="53.793" width="8.96552" height="8.96552" fill="#D9DBE9"/>
<rect x="94.1377" y="53.793" width="8.96552" height="8.96552" fill="#D9DBE9"/>
<rect x="107.587" y="53.793" width="8.96552" height="8.96552" fill="#D9DBE9"/>
<rect x="121.034" y="53.793" width="8.96552" height="8.96552" fill="#D9DBE9"/>
<rect y="67.2415" width="8.96552" height="8.96552" fill="#D9DBE9"/>
<rect x="13.4473" y="67.2415" width="8.96552" height="8.96552" fill="#D9DBE9"/>
<rect x="26.8965" y="67.2415" width="8.96552" height="8.96552" fill="#D9DBE9"/>
<rect x="40.3438" y="67.2415" width="8.96552" height="8.96552" fill="#D9DBE9"/>
<rect x="53.7939" y="67.2415" width="8.96552" height="8.96552" fill="#D9DBE9"/>
<rect x="67.2412" y="67.2415" width="8.96552" height="8.96552" fill="#D9DBE9"/>
<rect x="80.6904" y="67.2415" width="8.96552" height="8.96552" fill="#D9DBE9"/>
<rect x="94.1377" y="67.2415" width="8.96552" height="8.96552" fill="#D9DBE9"/>
<rect x="107.587" y="67.2415" width="8.96552" height="8.96552" fill="#D9DBE9"/>
<rect x="121.034" y="67.2415" width="8.96552" height="8.96552" fill="#D9DBE9"/>
<rect y="80.6897" width="8.96552" height="8.96552" fill="#D9DBE9"/>
<rect x="13.4473" y="80.6897" width="8.96552" height="8.96552" fill="#D9DBE9"/>
<rect x="26.8965" y="80.6897" width="8.96552" height="8.96552" fill="#D9DBE9"/>
<rect x="40.3438" y="80.6897" width="8.96552" height="8.96552" fill="#D9DBE9"/>
<rect x="53.7939" y="80.6897" width="8.96552" height="8.96552" fill="#D9DBE9"/>
<rect x="67.2412" y="80.6897" width="8.96552" height="8.96552" fill="#D9DBE9"/>
<rect x="80.6904" y="80.6897" width="8.96552" height="8.96552" fill="#D9DBE9"/>
<rect x="94.1377" y="80.6897" width="8.96552" height="8.96552" fill="#D9DBE9"/>
<rect x="107.587" y="80.6897" width="8.96552" height="8.96552" fill="#D9DBE9"/>
<rect x="121.034" y="80.6897" width="8.96552" height="8.96552" fill="#D9DBE9"/>
<rect y="94.1379" width="8.96552" height="8.96552" fill="#D9DBE9"/>
<rect x="13.4473" y="94.1379" width="8.96552" height="8.96552" fill="#D9DBE9"/>
<rect x="26.8965" y="94.1379" width="8.96552" height="8.96552" fill="#D9DBE9"/>
<rect x="40.3438" y="94.1379" width="8.96552" height="8.96552" fill="#D9DBE9"/>
<rect x="53.7939" y="94.1379" width="8.96552" height="8.96552" fill="#D9DBE9"/>
<rect x="67.2412" y="94.1379" width="8.96552" height="8.96552" fill="#D9DBE9"/>
<rect x="80.6904" y="94.1379" width="8.96552" height="8.96552" fill="#D9DBE9"/>
<rect x="94.1377" y="94.1379" width="8.96552" height="8.96552" fill="#D9DBE9"/>
<rect x="107.587" y="94.1379" width="8.96552" height="8.96552" fill="#D9DBE9"/>
<rect x="121.034" y="94.1379" width="8.96552" height="8.96552" fill="#D9DBE9"/>
<rect y="107.586" width="8.96552" height="8.96552" fill="#D9DBE9"/>
<rect x="13.4473" y="107.586" width="8.96552" height="8.96552" fill="#D9DBE9"/>
<rect x="26.8965" y="107.586" width="8.96552" height="8.96552" fill="#D9DBE9"/>
<rect x="40.3438" y="107.586" width="8.96552" height="8.96552" fill="#D9DBE9"/>
<rect x="53.7939" y="107.586" width="8.96552" height="8.96552" fill="#D9DBE9"/>
<rect x="67.2412" y="107.586" width="8.96552" height="8.96552" fill="#D9DBE9"/>
<rect x="80.6904" y="107.586" width="8.96552" height="8.96552" fill="#D9DBE9"/>
<rect x="94.1377" y="107.586" width="8.96552" height="8.96552" fill="#D9DBE9"/>
<rect x="107.587" y="107.586" width="8.96552" height="8.96552" fill="#D9DBE9"/>
<rect x="121.034" y="107.586" width="8.96552" height="8.96552" fill="#D9DBE9"/>
<rect y="121.034" width="8.96552" height="8.96552" fill="#D9DBE9"/>
<rect x="13.4473" y="121.034" width="8.96552" height="8.96552" fill="#D9DBE9"/>
<rect x="26.8965" y="121.034" width="8.96552" height="8.96552" fill="#D9DBE9"/>
<rect x="40.3438" y="121.034" width="8.96552" height="8.96552" fill="#D9DBE9"/>
<rect x="53.7939" y="121.034" width="8.96552" height="8.96552" fill="#D9DBE9"/>
<rect x="67.2412" y="121.034" width="8.96552" height="8.96552" fill="#D9DBE9"/>
<rect x="80.6904" y="121.034" width="8.96552" height="8.96552" fill="#D9DBE9"/>
<rect x="94.1377" y="121.034" width="8.96552" height="8.96552" fill="#D9DBE9"/>
<rect x="107.587" y="121.034" width="8.96552" height="8.96552" fill="#D9DBE9"/>
<rect x="121.034" y="121.034" width="8.96552" height="8.96552" fill="#D9DBE9"/>
</svg>
