<svg width="234" height="74" viewBox="0 0 234 74" fill="none" xmlns="http://www.w3.org/2000/svg">
<rect y="0.345703" width="233.709" height="73.4513" rx="20.2099" fill="black"/>
<path d="M81.2677 23.474H82.4818C82.1214 21.596 80.5469 20.306 78.4981 20.306C76.0083 20.306 74.2489 22.222 74.2489 25.2951C74.2489 28.3682 75.9941 30.2842 78.574 30.2842C80.8883 30.2842 82.5387 28.7429 82.5387 26.3384V25.2951H78.8396V26.3384H81.4005C81.3673 28.0837 80.2196 29.1839 78.574 29.1839C76.7719 29.1839 75.3871 27.8181 75.3871 25.2951C75.3871 22.7721 76.7719 21.4063 78.4981 21.4063C79.9019 21.4063 80.8551 22.1982 81.2677 23.474ZM87.4555 30.3031C88.9351 30.3031 90.0164 29.5633 90.3579 28.463L89.2766 28.1595C88.992 28.9183 88.3328 29.2977 87.4555 29.2977C86.1418 29.2977 85.236 28.4488 85.1838 26.8885H90.4717V26.4143C90.4717 23.7016 88.8592 22.7721 87.3416 22.7721C85.3688 22.7721 84.0599 24.3276 84.0599 26.5661C84.0599 28.8045 85.3498 30.3031 87.4555 30.3031ZM85.1838 25.9211C85.2597 24.7876 86.0612 23.7775 87.3416 23.7775C88.5557 23.7775 89.3335 24.688 89.3335 25.9211H85.1838ZM95.3422 22.8669H93.7867V21.1217H92.6674V22.8669H91.5672V23.8154H92.6674V28.3682C92.6674 29.6392 93.6918 30.2462 94.6403 30.2462C95.0576 30.2462 95.3232 30.1703 95.475 30.1134L95.2473 29.108C95.1525 29.127 95.0007 29.1649 94.7541 29.1649C94.2609 29.1649 93.7867 29.0132 93.7867 28.0647V23.8154H95.3422V22.8669ZM100.782 30.1514H101.901V22.8669H100.782V30.1514ZM101.351 21.6529C101.787 21.6529 102.148 21.3114 102.148 20.8941C102.148 20.4767 101.787 20.1353 101.351 20.1353C100.915 20.1353 100.554 20.4767 100.554 20.8941C100.554 21.3114 100.915 21.6529 101.351 21.6529ZM107.119 22.8669H105.563V21.1217H104.444V22.8669H103.344V23.8154H104.444V28.3682C104.444 29.6392 105.469 30.2462 106.417 30.2462C106.834 30.2462 107.1 30.1703 107.252 30.1134L107.024 29.108C106.929 29.127 106.777 29.1649 106.531 29.1649C106.038 29.1649 105.563 29.0132 105.563 28.0647V23.8154H107.119V22.8669ZM115.518 30.3031C117.491 30.3031 118.819 28.8045 118.819 26.5471C118.819 24.2707 117.491 22.7721 115.518 22.7721C113.545 22.7721 112.217 24.2707 112.217 26.5471C112.217 28.8045 113.545 30.3031 115.518 30.3031ZM115.518 29.2977C114.019 29.2977 113.336 28.0078 113.336 26.5471C113.336 25.0864 114.019 23.7775 115.518 23.7775C117.016 23.7775 117.699 25.0864 117.699 26.5471C117.699 28.0078 117.016 29.2977 115.518 29.2977ZM121.646 25.7693C121.646 24.4983 122.434 23.7775 123.505 23.7775C124.544 23.7775 125.175 24.4557 125.175 25.5986V30.1514H126.294V25.5227C126.294 23.6637 125.303 22.7721 123.828 22.7721C122.728 22.7721 122.045 23.2653 121.703 24.0051H121.608V22.8669H120.527V30.1514H121.646V25.7693ZM85.5929 42.1963H89.0707C88.628 38.9951 85.8063 36.7424 82.1467 36.7424C77.8705 36.7424 74.5745 39.825 74.5745 45.0734C74.5745 50.1952 77.6571 53.3727 82.2178 53.3727C86.3042 53.3727 89.2209 50.788 89.2209 46.5277V44.4885H82.447V47.0652H85.9248C85.8774 49.0728 84.51 50.3454 82.2336 50.3454C79.6648 50.3454 78.0444 48.4247 78.0444 45.0417C78.0444 41.6746 79.728 39.7697 82.202 39.7697C83.9646 39.7697 85.1581 40.6787 85.5929 42.1963ZM97.2139 53.3885C100.897 53.3885 103.189 50.8671 103.189 47.1284C103.189 43.3661 100.897 40.8526 97.2139 40.8526C93.5306 40.8526 91.2384 43.3661 91.2384 47.1284C91.2384 50.8671 93.5306 53.3885 97.2139 53.3885ZM97.2297 50.7801C95.5303 50.7801 94.6609 49.223 94.6609 47.1047C94.6609 44.9864 95.5303 43.4214 97.2297 43.4214C98.8975 43.4214 99.7669 44.9864 99.7669 47.1047C99.7669 49.223 98.8975 50.7801 97.2297 50.7801ZM110.864 53.3885C114.548 53.3885 116.84 50.8671 116.84 47.1284C116.84 43.3661 114.548 40.8526 110.864 40.8526C107.181 40.8526 104.889 43.3661 104.889 47.1284C104.889 50.8671 107.181 53.3885 110.864 53.3885ZM110.88 50.7801C109.181 50.7801 108.311 49.223 108.311 47.1047C108.311 44.9864 109.181 43.4214 110.88 43.4214C112.548 43.4214 113.417 44.9864 113.417 47.1047C113.417 49.223 112.548 50.7801 110.88 50.7801ZM124.499 57.9571C127.969 57.9571 130.435 56.3762 130.435 53.2699V41.0107H127.091V43.0499H126.965C126.514 42.0619 125.526 40.8526 123.495 40.8526C120.831 40.8526 118.579 42.9234 118.579 47.0573C118.579 51.0963 120.768 52.9775 123.503 52.9775C125.439 52.9775 126.522 52.0053 126.965 51.0014H127.107V53.2225C127.107 54.8903 126.04 55.5384 124.578 55.5384C123.092 55.5384 122.341 54.8903 122.064 54.1552L118.95 54.5741C119.353 56.4869 121.227 57.9571 124.499 57.9571ZM124.57 50.4482C122.918 50.4482 122.017 49.1361 122.017 47.0415C122.017 44.9785 122.902 43.5321 124.57 43.5321C126.206 43.5321 127.123 44.9153 127.123 47.0415C127.123 49.1835 126.19 50.4482 124.57 50.4482ZM136.482 36.9637H133.114V53.1514H136.482V36.9637ZM144.712 53.3885C147.715 53.3885 149.739 51.9262 150.213 49.6736L147.099 49.4681C146.759 50.3928 145.889 50.875 144.767 50.875C143.083 50.875 142.016 49.7605 142.016 47.9505V47.9426H150.284V47.0178C150.284 42.8918 147.786 40.8526 144.577 40.8526C141.005 40.8526 138.689 43.3898 138.689 47.1363C138.689 50.9856 140.973 53.3885 144.712 53.3885ZM142.016 45.8559C142.088 44.4727 143.139 43.3661 144.633 43.3661C146.095 43.3661 147.107 44.4094 147.115 45.8559H142.016ZM157.696 53.1514H161.119V47.903H163.996C167.719 47.903 169.884 45.682 169.884 42.4492C169.884 39.2322 167.758 36.9637 164.083 36.9637H157.696V53.1514ZM161.119 45.1603V39.7618H163.427C165.403 39.7618 166.359 40.8368 166.359 42.4492C166.359 44.0537 165.403 45.1603 163.442 45.1603H161.119ZM175.411 36.9637H172.044V53.1514H175.411V36.9637ZM181.571 53.3806C183.365 53.3806 184.527 52.5981 185.119 51.4678H185.214V53.1514H188.408V44.9627C188.408 42.0698 185.957 40.8526 183.254 40.8526C180.345 40.8526 178.433 42.2437 177.966 44.4568L181.08 44.7098C181.31 43.9036 182.029 43.3107 183.238 43.3107C184.384 43.3107 185.04 43.8877 185.04 44.8837V44.9311C185.04 45.7136 184.21 45.8164 182.1 46.0219C179.697 46.2432 177.539 47.0494 177.539 49.7605C177.539 52.1634 179.255 53.3806 181.571 53.3806ZM182.535 51.0568C181.499 51.0568 180.756 50.5746 180.756 49.6498C180.756 48.7014 181.539 48.235 182.725 48.069C183.46 47.9663 184.661 47.7924 185.064 47.5236V48.812C185.064 50.0846 184.013 51.0568 182.535 51.0568ZM192.664 57.7041C195.17 57.7041 196.497 56.4237 197.185 54.4634L201.904 41.0265L198.339 41.0107L195.802 49.9265H195.675L193.162 41.0107H189.621L193.976 53.4991L193.778 54.0129C193.336 55.1511 192.49 55.2064 191.304 54.8428L190.546 57.3564C191.028 57.5619 191.81 57.7041 192.664 57.7041Z" fill="white"/>
<g clip-path="url(#clip0)">
<path d="M27.8032 20.1664C26.4099 19.2971 24.774 19.3172 23.3896 20.1789L39.6148 37.0749L45.0655 30.922L27.8032 20.1664Z" fill="white"/>
<path d="M21.7687 21.9072C21.3725 22.6383 21.1455 23.475 21.1455 24.3619V54.8777C21.1455 55.7369 21.3525 56.556 21.7264 57.272L38.0428 38.8535L21.7687 21.9072Z" fill="white"/>
<path d="M52.2955 35.4236L47.0963 32.1851L41.2539 38.7776L48.4139 46.232L52.2977 43.8125C53.6954 42.9382 54.5323 41.3705 54.5323 39.6168C54.53 37.8631 53.6954 36.2954 52.2955 35.4236Z" fill="white"/>
<path d="M39.6793 40.5586L23.3184 59.0274C24.0283 59.4846 24.8073 59.7258 25.5908 59.7258C26.3475 59.7258 27.1087 59.5098 27.8053 59.0751L46.3607 47.5155L39.6793 40.5586Z" fill="white"/>
</g>
<defs>
<clipPath id="clip0">
<rect width="35.6128" height="40.201" fill="white" transform="translate(20.0322 19.5234)"/>
</clipPath>
</defs>
</svg>
