<svg width="234" height="74" viewBox="0 0 234 74" fill="none" xmlns="http://www.w3.org/2000/svg">
<rect width="233.709" height="73.4513" rx="20.2099" fill="white"/>
<path d="M81.2677 23.1283H82.4818C82.1214 21.2503 80.5469 19.9603 78.4981 19.9603C76.0083 19.9603 74.2489 21.8763 74.2489 24.9494C74.2489 28.0225 75.9941 29.9385 78.574 29.9385C80.8883 29.9385 82.5387 28.3972 82.5387 25.9927V24.9494H78.8396V25.9927H81.4005C81.3673 27.7379 80.2196 28.8382 78.574 28.8382C76.7719 28.8382 75.3871 27.4724 75.3871 24.9494C75.3871 22.4264 76.7719 21.0606 78.4981 21.0606C79.9019 21.0606 80.8551 21.8525 81.2677 23.1283ZM87.4555 29.9574C88.9351 29.9574 90.0164 29.2176 90.3579 28.1173L89.2766 27.8138C88.992 28.5726 88.3328 28.952 87.4555 28.952C86.1418 28.952 85.236 28.1031 85.1838 26.5428H90.4717V26.0686C90.4717 23.3559 88.8592 22.4264 87.3416 22.4264C85.3688 22.4264 84.0599 23.9819 84.0599 26.2204C84.0599 28.4588 85.3498 29.9574 87.4555 29.9574ZM85.1838 25.5754C85.2597 24.4419 86.0612 23.4318 87.3416 23.4318C88.5557 23.4318 89.3335 24.3423 89.3335 25.5754H85.1838ZM95.3422 22.5212H93.7867V20.776H92.6674V22.5212H91.5672V23.4697H92.6674V28.0225C92.6674 29.2935 93.6918 29.9005 94.6403 29.9005C95.0576 29.9005 95.3232 29.8246 95.475 29.7677L95.2473 28.7623C95.1525 28.7813 95.0007 28.8192 94.7541 28.8192C94.2609 28.8192 93.7867 28.6675 93.7867 27.719V23.4697H95.3422V22.5212ZM100.782 29.8057H101.901V22.5212H100.782V29.8057ZM101.351 21.3072C101.787 21.3072 102.148 20.9657 102.148 20.5484C102.148 20.131 101.787 19.7896 101.351 19.7896C100.915 19.7896 100.554 20.131 100.554 20.5484C100.554 20.9657 100.915 21.3072 101.351 21.3072ZM107.119 22.5212H105.563V20.776H104.444V22.5212H103.344V23.4697H104.444V28.0225C104.444 29.2935 105.469 29.9005 106.417 29.9005C106.834 29.9005 107.1 29.8246 107.252 29.7677L107.024 28.7623C106.929 28.7813 106.777 28.8192 106.531 28.8192C106.038 28.8192 105.563 28.6675 105.563 27.719V23.4697H107.119V22.5212ZM115.518 29.9574C117.491 29.9574 118.819 28.4588 118.819 26.2014C118.819 23.925 117.491 22.4264 115.518 22.4264C113.545 22.4264 112.217 23.925 112.217 26.2014C112.217 28.4588 113.545 29.9574 115.518 29.9574ZM115.518 28.952C114.019 28.952 113.336 27.6621 113.336 26.2014C113.336 24.7407 114.019 23.4318 115.518 23.4318C117.016 23.4318 117.699 24.7407 117.699 26.2014C117.699 27.6621 117.016 28.952 115.518 28.952ZM121.646 25.4236C121.646 24.1526 122.434 23.4318 123.505 23.4318C124.544 23.4318 125.175 24.11 125.175 25.2529V29.8057H126.294V25.177C126.294 23.318 125.303 22.4264 123.828 22.4264C122.728 22.4264 122.045 22.9196 121.703 23.6594H121.608V22.5212H120.527V29.8057H121.646V25.4236ZM85.5929 41.8506H89.0707C88.628 38.6494 85.8063 36.3967 82.1467 36.3967C77.8705 36.3967 74.5745 39.4793 74.5745 44.7277C74.5745 49.8495 77.6571 53.027 82.2178 53.027C86.3042 53.027 89.2209 50.4423 89.2209 46.182V44.1428H82.447V46.7195H85.9248C85.8774 48.7271 84.51 49.9997 82.2336 49.9997C79.6648 49.9997 78.0444 48.079 78.0444 44.696C78.0444 41.3289 79.728 39.424 82.202 39.424C83.9646 39.424 85.1581 40.333 85.5929 41.8506ZM97.2139 53.0428C100.897 53.0428 103.189 50.5214 103.189 46.7827C103.189 43.0204 100.897 40.5069 97.2139 40.5069C93.5306 40.5069 91.2384 43.0204 91.2384 46.7827C91.2384 50.5214 93.5306 53.0428 97.2139 53.0428ZM97.2297 50.4344C95.5303 50.4344 94.6609 48.8773 94.6609 46.759C94.6609 44.6407 95.5303 43.0757 97.2297 43.0757C98.8975 43.0757 99.7669 44.6407 99.7669 46.759C99.7669 48.8773 98.8975 50.4344 97.2297 50.4344ZM110.864 53.0428C114.548 53.0428 116.84 50.5214 116.84 46.7827C116.84 43.0204 114.548 40.5069 110.864 40.5069C107.181 40.5069 104.889 43.0204 104.889 46.7827C104.889 50.5214 107.181 53.0428 110.864 53.0428ZM110.88 50.4344C109.181 50.4344 108.311 48.8773 108.311 46.759C108.311 44.6407 109.181 43.0757 110.88 43.0757C112.548 43.0757 113.417 44.6407 113.417 46.759C113.417 48.8773 112.548 50.4344 110.88 50.4344ZM124.499 57.6114C127.969 57.6114 130.435 56.0305 130.435 52.9242V40.6649H127.091V42.7042H126.965C126.514 41.7162 125.526 40.5069 123.495 40.5069C120.831 40.5069 118.579 42.5777 118.579 46.7116C118.579 50.7506 120.768 52.6318 123.503 52.6318C125.439 52.6318 126.522 51.6596 126.965 50.6557H127.107V52.8768C127.107 54.5446 126.04 55.1927 124.578 55.1927C123.092 55.1927 122.341 54.5446 122.064 53.8095L118.95 54.2284C119.353 56.1412 121.227 57.6114 124.499 57.6114ZM124.57 50.1025C122.918 50.1025 122.017 48.7904 122.017 46.6958C122.017 44.6328 122.902 43.1864 124.57 43.1864C126.206 43.1864 127.123 44.5696 127.123 46.6958C127.123 48.8378 126.19 50.1025 124.57 50.1025ZM136.482 36.618H133.114V52.8057H136.482V36.618ZM144.712 53.0428C147.715 53.0428 149.739 51.5805 150.213 49.3279L147.099 49.1223C146.759 50.0471 145.889 50.5293 144.767 50.5293C143.083 50.5293 142.016 49.4148 142.016 47.6048V47.5969H150.284V46.6721C150.284 42.5461 147.786 40.5069 144.577 40.5069C141.005 40.5069 138.689 43.0441 138.689 46.7906C138.689 50.6399 140.973 53.0428 144.712 53.0428ZM142.016 45.5102C142.088 44.1269 143.139 43.0204 144.633 43.0204C146.095 43.0204 147.107 44.0637 147.115 45.5102H142.016ZM157.696 52.8057H161.119V47.5573H163.996C167.719 47.5573 169.884 45.3363 169.884 42.1035C169.884 38.8865 167.758 36.618 164.083 36.618H157.696V52.8057ZM161.119 44.8146V39.4161H163.427C165.403 39.4161 166.359 40.4911 166.359 42.1035C166.359 43.708 165.403 44.8146 163.442 44.8146H161.119ZM175.411 36.618H172.044V52.8057H175.411V36.618ZM181.571 53.0349C183.365 53.0349 184.527 52.2524 185.119 51.1221H185.214V52.8057H188.408V44.617C188.408 41.7241 185.957 40.5069 183.254 40.5069C180.345 40.5069 178.433 41.898 177.966 44.1111L181.08 44.3641C181.31 43.5579 182.029 42.965 183.238 42.965C184.384 42.965 185.04 43.542 185.04 44.538V44.5854C185.04 45.3679 184.21 45.4706 182.1 45.6762C179.697 45.8975 177.539 46.7037 177.539 49.4148C177.539 51.8176 179.255 53.0349 181.571 53.0349ZM182.535 50.7111C181.499 50.7111 180.756 50.2289 180.756 49.3041C180.756 48.3556 181.539 47.8893 182.725 47.7233C183.46 47.6206 184.661 47.4467 185.064 47.1779V48.4663C185.064 49.7389 184.013 50.7111 182.535 50.7111ZM192.664 57.3584C195.17 57.3584 196.497 56.078 197.185 54.1177L201.904 40.6808L198.339 40.6649L195.802 49.5808H195.675L193.162 40.6649H189.621L193.976 53.1534L193.778 53.6672C193.336 54.8054 192.49 54.8607 191.304 54.4971L190.546 57.0107C191.028 57.2162 191.81 57.3584 192.664 57.3584Z" fill="black"/>
<g clip-path="url(#clip0_9134_68907)">
<path d="M27.8032 19.8206C26.4099 18.9513 24.774 18.9714 23.3896 19.8332L39.6148 36.7292L45.0655 30.5763L27.8032 19.8206Z" fill="black"/>
<path d="M21.7687 21.5616C21.3725 22.2927 21.1455 23.1293 21.1455 24.0162V54.532C21.1455 55.3913 21.3525 56.2103 21.7264 56.9264L38.0428 38.5078L21.7687 21.5616Z" fill="black"/>
<path d="M52.2955 35.078L47.0963 31.8395L41.2539 38.4321L48.4139 45.8864L52.2977 43.467C53.6954 42.5926 54.5323 41.0249 54.5323 39.2712C54.53 37.5175 53.6954 35.9498 52.2955 35.078Z" fill="black"/>
<path d="M39.6793 40.2126L23.3184 58.6814C24.0283 59.1387 24.8073 59.3799 25.5908 59.3799C26.3475 59.3799 27.1087 59.1638 27.8053 58.7292L46.3607 47.1695L39.6793 40.2126Z" fill="black"/>
</g>
<defs>
<clipPath id="clip0_9134_68907">
<rect width="35.6128" height="40.201" fill="white" transform="translate(20.0322 19.1777)"/>
</clipPath>
</defs>
</svg>
