<svg width="33" height="33" viewBox="0 0 33 33" fill="none" xmlns="http://www.w3.org/2000/svg">
<circle cx="16.5" cy="16.5" r="16.5" fill="#14142B"/>
<path d="M19.6457 9.7082C20.6118 9.71109 21.5375 10.0962 22.2207 10.7793C22.9038 11.4625 23.2889 12.3882 23.2918 13.3543V20.6457C23.2889 21.6118 22.9038 22.5375 22.2207 23.2207C21.5375 23.9038 20.6118 24.2889 19.6457 24.2918H12.3543C11.3882 24.2889 10.4625 23.9038 9.77931 23.2207C9.09616 22.5375 8.71109 21.6118 8.7082 20.6457V13.3543C8.71109 12.3882 9.09616 11.4625 9.77931 10.7793C10.4625 10.0962 11.3882 9.71109 12.3543 9.7082H19.6457ZM19.6457 8.25H12.3543C9.54687 8.25 7.25 10.5469 7.25 13.3543V20.6457C7.25 23.4531 9.54687 25.75 12.3543 25.75H19.6457C22.4531 25.75 24.75 23.4531 24.75 20.6457V13.3543C24.75 10.5469 22.4531 8.25 19.6457 8.25Z" fill="white"/>
<path d="M20.7395 13.3545C20.5231 13.3545 20.3117 13.2903 20.1318 13.1702C19.9519 13.05 19.8117 12.8792 19.729 12.6793C19.6462 12.4794 19.6245 12.2595 19.6667 12.0474C19.7089 11.8352 19.8131 11.6403 19.9661 11.4873C20.119 11.3344 20.3139 11.2302 20.5261 11.188C20.7382 11.1458 20.9582 11.1675 21.158 11.2502C21.3579 11.333 21.5287 11.4732 21.6489 11.6531C21.7691 11.833 21.8332 12.0444 21.8332 12.2607C21.8335 12.4045 21.8054 12.5468 21.7506 12.6797C21.6957 12.8125 21.6152 12.9332 21.5135 13.0348C21.4119 13.1365 21.2912 13.217 21.1584 13.2719C21.0255 13.3267 20.8832 13.3548 20.7395 13.3545ZM16 14.0834C16.5769 14.0834 17.1408 14.2545 17.6205 14.575C18.1002 14.8955 18.474 15.351 18.6948 15.884C18.9155 16.417 18.9733 17.0034 18.8608 17.5692C18.7482 18.135 18.4704 18.6548 18.0625 19.0627C17.6546 19.4706 17.1348 19.7484 16.569 19.8609C16.0032 19.9735 15.4168 19.9157 14.8838 19.695C14.3508 19.4742 13.8953 19.1003 13.5748 18.6207C13.2543 18.141 13.0832 17.5771 13.0832 17.0002C13.084 16.2269 13.3916 15.4854 13.9384 14.9386C14.4853 14.3918 15.2267 14.0842 16 14.0834ZM16 12.6252C15.1347 12.6252 14.2888 12.8818 13.5694 13.3625C12.8499 13.8432 12.2892 14.5265 11.958 15.326C11.6269 16.1254 11.5403 17.005 11.7091 17.8537C11.8779 18.7024 12.2946 19.4819 12.9064 20.0938C13.5183 20.7056 14.2978 21.1223 15.1465 21.2911C15.9951 21.4599 16.8748 21.3733 17.6742 21.0422C18.4737 20.711 19.157 20.1503 19.6377 19.4308C20.1184 18.7114 20.375 17.8655 20.375 17.0002C20.375 15.8399 19.9141 14.7271 19.0936 13.9066C18.2731 13.0861 17.1603 12.6252 16 12.6252Z" fill="white"/>
</svg>
