<svg width="30" height="30" viewBox="0 0 30 30" fill="none" xmlns="http://www.w3.org/2000/svg">
<path d="M21.5625 1.875H8.4375C7.44327 1.87609 6.49007 2.27152 5.78705 2.97455C5.08402 3.67757 4.68859 4.63077 4.6875 5.625V24.375C4.68859 25.3692 5.08402 26.3224 5.78705 27.0255C6.49007 27.7285 7.44327 28.1239 8.4375 28.125H21.5625C22.5567 28.1239 23.5099 27.7285 24.213 27.0255C24.916 26.3224 25.3114 25.3692 25.3125 24.375V5.625C25.3114 4.63077 24.916 3.67757 24.213 2.97455C23.5099 2.27152 22.5567 1.87609 21.5625 1.875ZM15 17.8125H10.3125C10.0639 17.8125 9.8254 17.7137 9.64959 17.5379C9.47377 17.3621 9.375 17.1236 9.375 16.875C9.375 16.6264 9.47377 16.3879 9.64959 16.2121C9.8254 16.0363 10.0639 15.9375 10.3125 15.9375H15C15.2486 15.9375 15.4871 16.0363 15.6629 16.2121C15.8387 16.3879 15.9375 16.6264 15.9375 16.875C15.9375 17.1236 15.8387 17.3621 15.6629 17.5379C15.4871 17.7137 15.2486 17.8125 15 17.8125ZM19.6875 13.125H10.3125C10.0639 13.125 9.8254 13.0262 9.64959 12.8504C9.47377 12.6746 9.375 12.4361 9.375 12.1875C9.375 11.9389 9.47377 11.7004 9.64959 11.5246C9.8254 11.3488 10.0639 11.25 10.3125 11.25H19.6875C19.9361 11.25 20.1746 11.3488 20.3504 11.5246C20.5262 11.7004 20.625 11.9389 20.625 12.1875C20.625 12.4361 20.5262 12.6746 20.3504 12.8504C20.1746 13.0262 19.9361 13.125 19.6875 13.125ZM19.6875 8.4375H10.3125C10.0639 8.4375 9.8254 8.33873 9.64959 8.16291C9.47377 7.9871 9.375 7.74864 9.375 7.5C9.375 7.25136 9.47377 7.0129 9.64959 6.83709C9.8254 6.66127 10.0639 6.5625 10.3125 6.5625H19.6875C19.9361 6.5625 20.1746 6.66127 20.3504 6.83709C20.5262 7.0129 20.625 7.25136 20.625 7.5C20.625 7.74864 20.5262 7.9871 20.3504 8.16291C20.1746 8.33873 19.9361 8.4375 19.6875 8.4375Z" fill="#03A438"/>
</svg>
