<svg width="33" height="34" viewBox="0 0 33 34" fill="none" xmlns="http://www.w3.org/2000/svg">
<circle cx="16.5" cy="16.7246" r="16.5" fill="#14142B"/>
<path d="M26 10.1484C25.2563 10.4746 24.4637 10.6909 23.6375 10.7959C24.4875 10.2884 25.1362 9.49086 25.4412 8.52961C24.6488 9.00211 23.7738 9.33586 22.8412 9.52211C22.0887 8.72086 21.0162 8.22461 19.8462 8.22461C17.5763 8.22461 15.7487 10.0671 15.7487 12.3259C15.7487 12.6509 15.7762 12.9634 15.8438 13.2609C12.435 13.0946 9.41875 11.4609 7.3925 8.97211C7.03875 9.58586 6.83125 10.2884 6.83125 11.0446C6.83125 12.4646 7.5625 13.7234 8.6525 14.4521C7.99375 14.4396 7.3475 14.2484 6.8 13.9471C6.8 13.9596 6.8 13.9759 6.8 13.9921C6.8 15.9846 8.22125 17.6396 10.085 18.0209C9.75125 18.1121 9.3875 18.1559 9.01 18.1559C8.7475 18.1559 8.4825 18.1409 8.23375 18.0859C8.765 19.7096 10.2725 20.9034 12.065 20.9421C10.67 22.0334 8.89875 22.6909 6.98125 22.6909C6.645 22.6909 6.3225 22.6759 6 22.6346C7.81625 23.8059 9.96875 24.4746 12.29 24.4746C19.835 24.4746 23.96 18.2246 23.96 12.8071C23.96 12.6259 23.9538 12.4509 23.945 12.2771C24.7587 11.6996 25.4425 10.9784 26 10.1484Z" fill="#FCFCFC"/>
</svg>
