<svg width="80" height="80" viewBox="0 0 80 80" fill="none" xmlns="http://www.w3.org/2000/svg">
<path d="M34.964 9.00453V7.37891C34.964 6.73234 35.4867 6.20969 36.1332 6.20969C36.7798 6.20969 37.307 6.73234 37.307 7.37891V9.00453H39.9157V7.37891C39.9157 6.73234 40.4427 6.20969 41.0895 6.20969C41.7362 6.20969 42.2632 6.73234 42.2632 7.37891V9.14187C43.1843 9.36328 44.0171 9.83719 44.6682 10.4883C45.594 11.4052 46.1652 12.6673 46.1652 14.0537C46.1652 15.5642 45.4832 16.9725 44.3271 17.9338C45.483 18.8948 46.1652 20.3034 46.1652 21.8094C46.1652 23.2002 45.594 24.4623 44.6682 25.3792C44.0171 26.0303 43.1844 26.5044 42.2632 26.7258V28.4886C42.2632 29.1353 41.7362 29.6578 41.0895 29.6578C40.4427 29.6578 39.9157 29.1352 39.9157 28.4886V26.8631H37.307V28.4886C37.307 29.1353 36.7798 29.6578 36.1332 29.6578C35.4865 29.6578 34.964 29.1352 34.964 28.4886V26.8631H30.7296C30.0829 26.8631 29.5559 26.3361 29.5559 25.6894C29.5559 25.0427 30.0829 24.52 30.7296 24.52H32.0362V17.9338V11.3475H30.7296C30.0829 11.3475 29.5559 10.8248 29.5559 10.1783C29.5559 9.53156 30.0829 9.00453 30.7296 9.00453H34.964ZM22.9078 31.8812C22.2965 31.1503 21.7386 30.3708 21.2425 29.5514H5.84655C4.88546 29.5514 4.00843 29.9456 3.37515 30.5834C2.73734 31.2169 2.34328 32.0939 2.34328 33.055C2.34328 34.0161 2.73749 34.8886 3.37515 35.5264C4.00859 36.1597 4.88546 36.5541 5.84655 36.5541H73.3783V29.5514H54.4832C53.9827 30.3708 53.4247 31.1503 52.8135 31.8812H69.8744C70.5256 31.8812 71.0483 32.4083 71.0483 33.055C71.0483 33.7017 70.5256 34.2242 69.8744 34.2242H5.84655C5.19983 34.2242 4.6728 33.7016 4.6728 33.055C4.6728 32.4083 5.19983 31.8812 5.84655 31.8812H22.9078ZM20.0242 27.2084C18.9878 24.83 18.412 22.208 18.412 19.4484C18.412 14.0803 20.587 9.21719 24.1081 5.69578C27.6292 2.17906 32.4924 0 37.8607 0C40.7352 0 43.4724 0.628906 45.9351 1.75391C48.4952 2.92328 50.7497 4.62859 52.5655 6.72797C52.9907 7.21516 52.9376 7.95047 52.4504 8.37547C51.9588 8.79641 51.2235 8.74328 50.7983 8.25594C49.1996 6.40906 47.2152 4.9075 44.9651 3.88C42.808 2.89234 40.403 2.34312 37.8607 2.34312C33.139 2.34312 28.8606 4.26094 25.7646 7.3525C22.6687 10.4486 20.7553 14.7272 20.7553 19.4486C20.7553 21.9112 21.2734 24.2498 22.2079 26.3627C23.1337 28.4577 24.4668 30.3311 26.1101 31.8814H49.6113C51.2546 30.3267 52.5921 28.4487 53.5179 26.3494C54.4479 24.2409 54.9661 21.9069 54.9661 19.4486C54.9661 18.2084 54.8379 17.0081 54.5897 15.8522C54.3374 14.6606 53.9563 13.518 53.4693 12.4328C53.2035 11.8436 53.4647 11.1528 54.0538 10.887C54.6429 10.6213 55.3383 10.8827 55.604 11.4717C56.1577 12.7075 56.5872 14.0097 56.8796 15.365C57.1632 16.6894 57.3093 18.0534 57.3093 19.4486C57.3093 22.2036 56.7379 24.8302 55.6971 27.2086H74.5522C75.1989 27.2086 75.7214 27.7356 75.7214 28.3823V48.3094C76.8863 48.3094 77.9359 48.7167 78.7642 49.545C79.5261 50.3112 80 51.3609 80 52.517V54.8645C80 55.5112 79.4772 56.0383 78.8308 56.0383C78.1841 56.0383 77.6569 55.5111 77.6569 54.8645V52.517C77.6569 52.0033 77.4488 51.5381 77.1122 51.2017C76.7756 50.865 76.3105 50.6525 75.7969 50.6525H56.4011C55.8874 50.6525 55.4179 50.865 55.0813 51.2017C54.7447 51.5383 54.5366 52.0033 54.5366 52.517V62.527C54.5366 63.0364 54.7447 63.5014 55.0813 63.8381C55.4179 64.1748 55.8874 64.3873 56.4011 64.3873H75.7967C76.3103 64.3873 76.7755 64.1747 77.112 63.8381C77.4486 63.5016 77.6567 63.0366 77.6567 62.527V60.175C77.6567 59.5284 78.1839 59.0012 78.8306 59.0012C79.4772 59.0012 79.9998 59.5284 79.9998 60.175V62.5269C79.9998 63.6784 79.5259 64.7327 78.7641 65.4945C77.9358 66.3228 76.8863 66.7303 75.7213 66.7303V73.095C75.7213 75.2255 75.2561 76.9219 74.1267 78.1355C72.9972 79.3578 71.2831 80 68.8161 80H39.9866C39.3399 80 38.8129 79.4773 38.8129 78.8308C38.8129 78.1842 39.3399 77.657 39.9866 77.657H68.8161C70.5835 77.657 71.7394 77.2717 72.417 76.5453C73.0947 75.8102 73.3783 74.6408 73.3783 73.095V66.7303H56.4011C55.2452 66.7303 54.1955 66.2564 53.4336 65.4945C52.6676 64.7327 52.1936 63.6784 52.1936 62.5269V52.5169C52.1936 51.3609 52.6676 50.3112 53.4336 49.5448C54.1955 48.783 55.2452 48.3092 56.4011 48.3092H73.3783V38.8972H5.84655C4.53546 38.8972 3.32187 38.4631 2.34312 37.728V74.158C2.34312 75.1191 2.73734 75.9916 3.37499 76.6294C4.00843 77.2628 4.8853 77.657 5.84639 77.657H34.676C35.3227 77.657 35.8498 78.1841 35.8498 78.8308C35.8498 79.4775 35.3227 80 34.6762 80H5.84655C4.23874 80 2.77703 79.3445 1.71859 78.2859C0.655468 77.2273 0 75.7658 0 74.158V33.055C0 31.4472 0.655468 29.9855 1.71859 28.927C2.77703 27.8641 4.23874 27.2084 5.84655 27.2084H20.0242ZM62.1636 53.23C63.3461 53.23 64.4182 53.7128 65.1932 54.4878C65.9683 55.263 66.4511 56.3348 66.4511 57.5219C66.4511 58.7044 65.9683 59.7764 65.1932 60.5516C64.4182 61.3311 63.3463 61.8094 62.1636 61.8094C60.9766 61.8094 59.9046 61.3311 59.1296 60.5516C58.3544 59.7764 57.8716 58.7045 57.8716 57.5219C57.8716 56.3348 58.3544 55.263 59.1296 54.4878C59.9046 53.7128 60.9766 53.23 62.1636 53.23ZM63.5366 56.1444C63.1868 55.7945 62.6996 55.573 62.1636 55.573C61.6233 55.573 61.1361 55.7944 60.7863 56.1444C60.4363 56.4987 60.2147 56.9814 60.2147 57.5219C60.2147 58.0578 60.4363 58.545 60.7863 58.895C61.1361 59.2494 61.6233 59.4662 62.1636 59.4662C62.6996 59.4662 63.1868 59.2492 63.5366 58.895C63.891 58.5452 64.108 58.0578 64.108 57.5219C64.108 56.9816 63.891 56.4987 63.5366 56.1444ZM41.0896 19.103H34.3795V24.5198H41.0896C41.8424 24.5198 42.529 24.2142 43.0205 23.7225C43.5166 23.2309 43.8223 22.5577 43.8223 21.8136C43.8223 21.0652 43.5166 20.3919 43.0205 19.9002C42.5288 19.4086 41.8424 19.103 41.0896 19.103ZM41.0896 11.3475H34.3795V16.76H41.0896C41.8424 16.76 42.529 16.4587 43.0205 15.9672C43.5166 15.4756 43.8223 14.798 43.8223 14.0537C43.8223 13.3095 43.5166 12.6364 43.0205 12.1447C42.5288 11.6531 41.8424 11.3475 41.0896 11.3475Z" fill="#03A438"/>
</svg>
